<?xml version="1.0"?>
<svg width="640" height="480" xmlns="http://www.w3.org/2000/svg" xmlns:svg="http://www.w3.org/2000/svg">
 <!-- Created with SVG-edit - https://github.com/SVG-Edit/svgedit-->
 <g class="layer">
  <title>Layer 1</title>
  <path d="m480.574959,30.18278l-115.681885,115.681735c-198.481739,0.00484 -200.025146,-0.002362 -201.567588,0c-16.899866,0.022421 -33.788654,-0.073951 -50.685892,0.275112c-28.961514,-5.21135 -48.934687,33.406508 -28.445071,54.212869c16.498741,16.706589 41.447839,9.725421 62.519216,11.158484c0.136392,65.196622 0.263769,130.39188 0.400293,195.588502c-3.217251,19.309627 11.661105,38.87815 31.472221,40.553541c16.71419,2.204225 36.005804,-6.821938 40.82837,-23.892693c3.389504,-34.54849 1.147837,-69.457021 1.776454,-104.173073c26.131516,0 96.975941,0.919364 155.260623,1.575675c0.087224,17.443155 0.185559,60.025108 0.274181,71.776215c-0.333728,15.981084 -1.575675,61.199326 29.02116,61.243587c30.595505,0.044311 33.212399,-32.097744 32.848266,-38.527839c-0.231267,-8.495882 0.235342,-71.521462 0.899987,-93.891057c3.728704,0.019394 8.115116,0.04985 10.882923,0.04985c-0.0166,-0.016617 -0.033216,-0.033216 -0.049816,-0.04985c0.174432,0.101096 0.350294,0.199382 0.524759,0.300478c0.3309,-27.955075 -0.648011,-83.203358 -0.074799,-111.154241c25.581873,-0.321236 51.170649,-0.159229 76.753919,-0.224315c22.498303,5.744709 56.728351,-6.821905 39.253344,-34.624686c-27.235059,-30.80801 -57.517627,-58.831613 -86.210648,-88.287713l0,-57.590597z" fill="#d62f2f" id="svg_19" stroke="#000000" stroke-width="5"/>
 </g>
</svg>